<svg width="135" height="136" viewBox="0 0 135 136" fill="none" xmlns="http://www.w3.org/2000/svg">
<path d="M125 109.831C125 114.65 123.089 119.271 119.688 122.678C116.287 126.086 111.674 128 106.864 128C99.635 128 93.3909 123.743 90.4632 117.618H73.1818C71.8075 117.618 70.4895 117.071 69.5177 116.097C68.5459 115.124 68 113.803 68 112.427V81.2803C68 78.3993 70.3059 76.0892 73.1818 76.0892H114.636C116.011 76.0892 117.329 76.6361 118.3 77.6097C119.272 78.5832 119.818 79.9035 119.818 81.2803V97.1131C123.031 100.383 125 104.874 125 109.831ZM88.7273 109.831C88.7273 104.744 90.8259 100.15 94.1682 96.8535H73.1818V113.29H88.9086C88.7273 112.434 88.7273 110.714 88.7273 109.831ZM106.864 96.8535C103.428 96.8535 100.133 98.2208 97.7034 100.655C95.2739 103.088 93.9091 106.389 93.9091 109.831C93.9091 113.273 95.2739 116.574 97.7034 119.008C100.133 121.442 103.428 122.809 106.864 122.809C110.299 122.809 113.594 121.442 116.024 119.008C118.453 116.574 119.818 113.273 119.818 109.831C119.818 106.389 118.453 103.088 116.024 100.655C113.594 98.2208 110.299 96.8535 106.864 96.8535ZM114.636 88.1986V80.4167H73.1818V88.1986H114.636Z" fill="white"/>
<path d="M112.908 110.045L104.271 118.682L99.9531 114.364" stroke="white" stroke-width="5" stroke-linecap="round" stroke-linejoin="round"/>
<path d="M69.1081 45.5001C71.5659 41.967 73.0497 37.8488 73.4101 33.56C73.7704 29.2712 72.9946 24.9631 71.1608 21.0695C69.3269 17.1758 66.4997 13.8339 62.9638 11.3802C59.4278 8.92654 55.3079 7.44761 51.0187 7.0923C46.7294 6.737 42.4223 7.51787 38.5308 9.3563C34.6393 11.1947 31.3008 14.0259 28.8512 17.5647C26.4017 21.1036 24.9276 25.2252 24.5774 29.5149C24.2271 33.8045 25.0131 38.1107 26.8561 42.0001" stroke="white" stroke-width="6" stroke-linecap="round" stroke-linejoin="round"/>
<path d="M49 21C45.1325 21 42 23.352 42 26.25C42 29.148 45.1325 31.5 49 31.5C52.8675 31.5 56 33.852 56 36.75C56 39.648 52.8675 42 49 42M49 21C52.045 21 54.642 22.4595 55.601 24.5M49 21V17.5M49 42C45.955 42 43.358 40.5405 42.399 38.5M49 42V45.5M10.5 49H18.8825C19.9115 49 20.9265 49.231 21.847 49.679L28.994 53.137C29.9145 53.5815 30.9295 53.8125 31.962 53.8125H35.609C39.137 53.8125 42 56.581 42 59.997C42 60.137 41.9055 60.256 41.769 60.2945L32.8755 62.755C31.2797 63.1958 29.578 63.0416 28.0875 62.321L20.447 58.625M42 57.75L58.0755 52.8115C59.475 52.3821 60.9744 52.4057 62.3597 52.879C63.7449 53.3523 64.9453 54.251 65.7895 55.447C67.081 57.232 66.556 59.794 64.673 60.879L38.3705 76.0585C37.5481 76.5344 36.6373 76.8378 35.6938 76.9503C34.7503 77.0628 33.7938 76.9821 32.8825 76.713L10.5 70.07" stroke="white" stroke-width="6" stroke-linecap="round" stroke-linejoin="round"/>
</svg>
