<svg width="135" height="130" viewBox="0 0 135 130" fill="none" xmlns="http://www.w3.org/2000/svg">
<g clip-path="url(#clip0_510_660)">
<path fill-rule="evenodd" clip-rule="evenodd" d="M108.575 113.489C119.701 113.489 128.682 109.021 128.682 102.319V59.8723C128.682 55.4042 119.745 50.9362 108.575 50.9362C97.4049 50.9362 88.4688 55.4042 88.4688 59.8723V75.5106C93.6964 77.7 98.1645 81.3638 101.337 86.0106C103.526 86.4396 105.939 86.6764 108.575 86.6764C114.428 86.6764 119.299 85.5102 122.784 83.6113C123.278 83.3393 123.76 83.0441 124.227 82.7266V88.8925C124.227 89.9425 123.391 91.5734 120.643 93.0747C117.98 94.5268 113.897 95.5947 108.58 95.5947C107.516 95.5947 106.503 95.5545 105.541 95.474C105.899 96.9425 106.137 98.4468 106.256 99.9868C107.01 100.028 107.784 100.049 108.58 100.049C114.433 100.049 119.303 98.8832 122.788 96.9842C123.283 96.7123 123.764 96.4171 124.231 96.0996V102.266C124.231 103.32 123.566 104.884 120.697 106.43C117.873 107.949 113.637 108.968 108.589 108.968C107.561 108.968 106.566 108.926 105.604 108.843C105.26 110.328 104.799 111.783 104.223 113.194C105.629 113.352 107.083 113.431 108.584 113.431L108.575 113.489ZM120.639 79.7106C123.387 78.2093 124.222 76.5785 124.222 75.5285V69.3625C123.761 69.6783 123.28 69.9732 122.779 70.2472C119.303 72.1462 114.424 73.3123 108.571 73.3123C102.717 73.3123 97.8473 72.1462 94.3622 70.2472C93.8674 69.9753 93.3858 69.6801 92.919 69.3625V75.5285C92.919 76.5785 93.7545 78.2094 96.5024 79.7062C99.1653 81.1583 103.249 82.2262 108.566 82.2262C113.883 82.2262 117.949 81.1583 120.63 79.7062L120.639 79.7106ZM92.9368 62.1064C92.9368 60.8196 93.4953 59.5819 94.5364 58.8268C95.1039 58.4157 95.7205 58.0047 96.2075 57.7813C97.4273 57.2183 103.535 55.3998 108.584 55.3998C113.633 55.3998 118.012 56.414 120.961 57.7813C121.515 58.0359 122.127 58.4336 122.667 58.8268C123.7 59.573 124.231 60.8017 124.231 62.0751V62.1019C124.231 63.1519 123.396 64.7828 120.648 66.284C117.985 67.7362 113.901 68.804 108.584 68.804C103.267 68.804 99.2011 67.7317 96.5202 66.284C93.7724 64.7872 92.9368 63.1519 92.9368 62.1064Z" fill="white"/>
<path fill-rule="evenodd" clip-rule="evenodd" d="M97.4042 102.319C97.4042 113.445 88.4233 122.426 77.2978 122.426C66.1723 122.426 57.1914 113.445 57.1914 102.319C57.1914 91.1936 66.1723 82.2128 77.2978 82.2128C88.4233 82.2128 97.4042 91.1936 97.4042 102.319ZM92.9361 102.319C92.9361 110.943 85.9212 117.957 77.2978 117.957C68.6744 117.957 61.6595 110.943 61.6595 102.319C61.6595 93.6957 68.6744 86.6809 77.2978 86.6809C85.9212 86.6809 92.9361 93.6957 92.9361 102.319Z" fill="white"/>
</g>
<path d="M6.25391 57.1915L25.9135 76.8511L13.4953 93.7773L37.5305 116.17M37.5305 116.17V93.7773M37.5305 116.17L13.4953 112.438" stroke="white" stroke-width="5.3617" stroke-linecap="round" stroke-linejoin="round"/>
<path d="M44.5766 18.0935L38.5323 15.2384L42.8108 7.14893H71.5718L75.8843 15.2384L69.84 18.0618L67.3952 13.4936H47.0214L44.5766 18.0935ZM79.6195 26.183H64.3391L61.6226 16.6659H52.794L50.1114 26.183H34.7292L30.3828 34.2724L36.461 37.0958L38.8719 32.5276H75.4768L77.9216 37.1275L83.9998 34.3042L79.6195 26.183ZM76.8011 70.5957H69.7721L68.9572 67.7406L57.2083 51.2445L45.4255 67.7406L44.6445 70.5957H37.6155L47.361 35.7H54.4578L53.2354 39.9827L57.2083 45.5342L61.1472 39.9827L59.9588 35.7H66.9877L76.8011 70.5957ZM55.1709 48.3894L52.1149 44.1067L48.108 58.3188L55.1709 48.3894ZM66.3086 58.2871L62.3017 44.075L59.2457 48.3894L66.3086 58.2871Z" fill="white"/>
<defs>
<clipPath id="clip0_510_660">
<rect width="71.4894" height="71.4894" fill="white" transform="translate(57.1914 50.9362)"/>
</clipPath>
</defs>
</svg>
