<svg width="135" height="130" viewBox="0 0 135 130" fill="none" xmlns="http://www.w3.org/2000/svg">
<path d="M105.977 62.5198C105.977 62.6245 105.974 62.7261 105.968 62.8244L113.388 67.7747C114.328 67.3106 115.394 67.1695 116.422 67.3732C117.45 67.5769 118.382 68.114 119.073 68.9012C119.764 69.6885 120.177 70.6819 120.246 71.7274C120.315 72.7729 120.038 73.812 119.456 74.6837C118.875 75.5554 118.022 76.2108 117.03 76.5484C116.038 76.886 114.963 76.8868 113.97 76.5508C112.978 76.2148 112.124 75.5607 111.541 74.69C110.958 73.8193 110.679 72.7806 110.747 71.735L103.326 66.7847C102.29 67.298 101.102 67.4164 99.9845 67.1179L91.5357 75.5667C91.7248 76.272 91.7492 77.0114 91.6068 77.7276C91.4644 78.4438 91.1591 79.1177 90.7146 79.697C90.2701 80.2764 89.6982 80.7457 89.0433 81.0686C88.3883 81.3916 87.6679 81.5595 86.9376 81.5594C86.2869 81.5594 85.643 81.426 85.0459 81.1674C84.4487 80.9088 83.9109 80.5305 83.4657 80.0559C83.0205 79.5812 82.6773 79.0203 82.4575 78.4078C82.2376 77.7954 82.1456 77.1443 82.1873 76.4949L74.7666 71.5446C73.8272 72.0086 72.7609 72.1498 71.7331 71.9461C70.7053 71.7424 69.7734 71.2053 69.082 70.4181C68.3905 69.6308 67.9782 68.6374 67.9089 67.5919C67.8396 66.5464 68.1171 65.5072 68.6986 64.6356C69.28 63.7639 70.1329 63.1085 71.1248 62.7709C72.1167 62.4333 73.1923 62.4325 74.1847 62.7685C75.1772 63.1045 76.031 63.7586 76.6139 64.6293C77.1967 65.5 77.476 66.5387 77.4083 67.5843L84.829 72.5346C85.8654 72.0213 87.0531 71.9029 88.1705 72.2014L96.6193 63.7526C96.4302 63.0473 96.4058 62.3079 96.5482 61.5917C96.6906 60.8755 96.9959 60.2016 97.4404 59.6223C97.8849 59.0429 98.4568 58.5736 99.1117 58.2507C99.7667 57.9277 100.487 57.7598 101.217 57.7599C102.48 57.7599 103.69 58.2614 104.583 59.154C105.476 60.0467 105.977 61.2574 105.977 62.5198Z" fill="white"/>
<path d="M96.4581 114.879C96.4581 115.51 96.2074 116.115 95.7611 116.562C95.3147 117.008 94.7094 117.259 94.0782 117.259C93.447 117.259 92.8416 117.008 92.3953 116.562C91.949 116.115 91.6982 115.51 91.6982 114.879V93.4592H82.1784V114.879C82.1784 115.51 81.9277 116.115 81.4813 116.562C81.035 117.008 80.4297 117.259 79.7985 117.259C79.1673 117.259 78.5619 117.008 78.1156 116.562C77.6693 116.115 77.4185 115.51 77.4185 114.879V88.6992H67.8987V114.879C67.8987 115.51 67.648 116.115 67.2016 116.562C66.7553 117.008 66.15 117.259 65.5188 117.259C64.8876 117.259 64.2822 117.008 63.8359 116.562C63.3896 116.115 63.1388 115.51 63.1388 114.879V87.2713C63.1388 86.3876 63.4899 85.5401 64.1147 84.9152C64.7396 84.2904 65.5871 83.9393 66.4707 83.9393H78.8465C79.7302 83.9393 80.5777 84.2904 81.2025 84.9152C81.8274 85.5401 82.1784 86.3876 82.1784 87.2713V88.6992H91.6982V82.5114C91.6982 81.6277 92.0493 80.7802 92.6741 80.1553C93.299 79.5305 94.1465 79.1794 95.0302 79.1794H107.406C108.29 79.1794 109.137 79.5305 109.762 80.1553C110.387 80.7802 110.738 81.6277 110.738 82.5114V86.3193H121.686C122.569 86.3193 123.417 86.6703 124.042 87.2952C124.667 87.9201 125.018 88.7675 125.018 89.6512V114.879C125.018 115.51 124.767 116.115 124.32 116.562C123.874 117.008 123.269 117.259 122.638 117.259C122.006 117.259 121.401 117.008 120.955 116.562C120.508 116.115 120.258 115.51 120.258 114.879V91.0792H110.738V114.879C110.738 115.51 110.487 116.115 110.041 116.562C109.594 117.008 108.989 117.259 108.358 117.259C107.727 117.259 107.121 117.008 106.675 116.562C106.229 116.115 105.978 115.51 105.978 114.879V83.9393H96.4581V114.879ZM58.3789 122.019C58.3789 121.387 58.6297 120.782 59.076 120.336C59.5223 119.889 60.1277 119.639 60.7589 119.639H127.397C128.029 119.639 128.634 119.889 129.08 120.336C129.527 120.782 129.777 121.387 129.777 122.019C129.777 122.65 129.527 123.255 129.08 123.701C128.634 124.148 128.029 124.399 127.397 124.399H60.7589C60.1277 124.399 59.5223 124.148 59.076 123.701C58.6297 123.255 58.3789 122.65 58.3789 122.019Z" fill="white"/>
<path d="M14.7928 52.4088L9.92612 57.2659C9.36829 57.7632 8.99908 58.4376 8.88078 59.1755C8.76249 59.9134 8.90236 60.6694 9.27679 61.3162L16.0593 67.7901C16.9658 68.7288 18.782 68.343 20.2092 67.0122L24.7834 62.1262M58.3619 52.441C50.0589 59.1432 41.7205 57.2338 37.5674 57.2338C33.4143 57.2338 33.1539 58.076 30.1066 61.3162C29.7224 61.7283 29.2588 62.0585 28.7437 62.2869C28.2339 62.5187 27.6804 62.6387 27.1204 62.6387C26.5604 62.6387 26.0068 62.5187 25.4971 62.2869C24.9713 62.061 24.4976 61.7295 24.1052 61.3129L15.7668 53.0582C15.3425 52.6461 15.0106 52.1487 14.7928 51.5988C14.5736 51.0758 14.4632 50.5136 14.4682 49.9465C14.4565 49.3808 14.5664 48.8192 14.7904 48.2995C15.0145 47.7799 15.3474 47.3145 15.7668 46.9346C19.0102 43.8905 19.9199 43.3086 19.9199 39.4545C19.9199 34.6006 17.6152 25.4008 27.1204 15.8795C29.4276 13.5599 32.1885 11.7412 35.2305 10.537C38.324 9.30977 41.638 8.73627 44.9639 8.85263C48.3074 8.95373 51.5928 9.75225 54.6096 11.197C57.6265 12.6418 60.3082 14.7009 62.4829 17.2424C65.7437 21.045 67.7426 25.7667 68.2032 30.7548C68.6639 35.7428 67.5636 40.7507 65.0545 45.0862C63.388 47.9666 61.1432 50.4707 58.4616 52.441H58.3619Z" stroke="white" stroke-width="5" stroke-linecap="round" stroke-linejoin="round"/>
<path d="M49.0131 18.8785L32.7382 32.614C32.6059 32.7144 32.5019 32.8473 32.436 32.9997C32.3645 33.1564 32.3251 33.3258 32.3203 33.498C32.3535 33.6598 32.4276 33.8103 32.5357 33.9352C32.6696 34.0013 32.8171 34.0354 32.9664 34.0348L42.3302 36.2207L38.28 47.092C38.2494 47.1551 38.234 47.2245 38.235 47.2945L38.4021 47.3331L38.6014 47.3781L54.8763 33.6426C55.0132 33.6544 55.1506 33.626 55.2716 33.5609C55.3926 33.4958 55.4921 33.3969 55.5578 33.2762C55.6416 33.1239 55.6827 32.9517 55.6767 32.7779C55.6435 32.6162 55.5694 32.4657 55.4613 32.3408C55.3265 32.2742 55.1778 32.24 55.0274 32.2411L45.699 30.0649L49.4663 19.335C49.4896 19.308 49.5061 19.2758 49.5145 19.2412C49.5229 19.2065 49.5229 19.1704 49.5146 19.1357L49.312 19.0907L49.0131 18.8785Z" stroke="white" stroke-width="5" stroke-linecap="round" stroke-linejoin="round"/>
</svg>
