<svg width="46" height="46" viewBox="0 0 46 46" fill="none" xmlns="http://www.w3.org/2000/svg">
<path fill-rule="evenodd" clip-rule="evenodd" d="M6.5 0.5H39.5C41.0913 0.5 42.6174 1.13214 43.7426 2.25736C44.8679 3.38258 45.5 4.9087 45.5 6.5V39.5C45.5 41.0913 44.8679 42.6174 43.7426 43.7426C42.6174 44.8679 41.0913 45.5 39.5 45.5H6.5C4.9087 45.5 3.38258 44.8679 2.25736 43.7426C1.13214 42.6174 0.5 41.0913 0.5 39.5V6.5C0.5 5.71207 0.655195 4.93185 0.956723 4.2039C1.25825 3.47595 1.70021 2.81451 2.25736 2.25736C3.38258 1.13214 4.9087 0.5 6.5 0.5ZM35.035 16.9525C35.2257 16.6853 35.362 16.3831 35.4359 16.0632C35.5099 15.7433 35.5201 15.412 35.466 15.0881C35.4119 14.7643 35.2946 14.4542 35.1207 14.1758C34.9468 13.8973 34.7197 13.6557 34.4525 13.465C34.1853 13.2743 33.8831 13.138 33.5632 13.0641C33.2433 12.9901 32.912 12.9799 32.5881 13.034C32.2643 13.0881 31.9542 13.2054 31.6758 13.3793C31.3973 13.5532 31.1557 13.7803 30.965 14.0475L20.18 29.1475L14.7675 23.7325C14.296 23.2771 13.6645 23.0251 13.009 23.0308C12.3535 23.0365 11.7265 23.2994 11.263 23.763C10.7994 24.2265 10.5365 24.8535 10.5308 25.509C10.5251 26.1645 10.7771 26.796 11.2325 27.2675L18.7325 34.7675C18.9892 35.0238 19.2987 35.2212 19.6394 35.346C19.9801 35.4707 20.3439 35.5198 20.7054 35.4898C21.067 35.4599 21.4177 35.3515 21.7332 35.1724C22.0487 34.9933 22.3215 34.7476 22.5325 34.4525L35.035 16.9525Z" fill="#902C4F"/>
</svg>
