<svg width="60" height="60" viewBox="0 0 60 60" fill="none" xmlns="http://www.w3.org/2000/svg">
<path d="M54.45 15.739C54.7812 15.3176 54.9615 14.7601 54.9529 14.1841C54.9444 13.6081 54.7476 13.0585 54.4041 12.6512C54.0605 12.2438 53.5971 12.0105 53.1113 12.0003C52.6256 11.9902 52.1554 12.204 51.8 12.5967L33.05 34.83C32.8658 35.0335 32.718 35.279 32.6155 35.5517C32.5131 35.8244 32.458 36.1189 32.4535 36.4174C32.4491 36.7159 32.4954 37.0124 32.5897 37.2893C32.684 37.5661 32.8244 37.8176 33.0024 38.0287C33.1805 38.2399 33.3925 38.4063 33.626 38.5181C33.8595 38.6299 34.1095 38.6849 34.3613 38.6796C34.6131 38.6743 34.8613 38.609 35.0913 38.4875C35.3213 38.3659 35.5283 38.1907 35.7 37.9723L54.45 15.739ZM54.8675 19.4386C54.9558 19.9386 55 20.4545 55 20.9861V41.4407C55 42.4334 54.8351 43.4164 54.5147 44.3335C54.1944 45.2506 53.7248 46.084 53.1328 46.7859C52.5408 47.4879 51.8381 48.0447 51.0646 48.4246C50.2912 48.8045 49.4622 49 48.625 49H11.375C10.5378 49 9.70884 48.8045 8.93539 48.4246C8.16194 48.0447 7.45917 47.4879 6.86719 46.7859C6.27522 46.084 5.80564 45.2506 5.48527 44.3335C5.16489 43.4164 5 42.4334 5 41.4407V20.9861C5 18.9812 5.67165 17.0585 6.86719 15.6408C8.06274 14.2232 9.68425 13.4268 11.375 13.4268H47.5625L43.8125 17.8734H11.375C9.925 17.8734 8.75 19.2667 8.75 20.9861V41.4407C8.75 43.1601 9.925 44.5533 11.375 44.5533H48.625C50.075 44.5533 51.25 43.1601 51.25 41.4407V23.7282L54.8675 19.4386ZM11.25 26.0256C11.25 25.436 11.4475 24.8704 11.7992 24.4535C12.1508 24.0365 12.6277 23.8023 13.125 23.8023H18.125C18.6223 23.8023 19.0992 24.0365 19.4508 24.4535C19.8025 24.8704 20 25.436 20 26.0256C20 26.6153 19.8025 27.1808 19.4508 27.5977C19.0992 28.0147 18.6223 28.2489 18.125 28.2489H13.125C12.6277 28.2489 12.1508 28.0147 11.7992 27.5977C11.4475 27.1808 11.25 26.6153 11.25 26.0256ZM11.25 36.4011C11.25 35.8115 11.4475 35.246 11.7992 34.829C12.1508 34.4121 12.6277 34.1778 13.125 34.1778H25.625C26.1223 34.1778 26.5992 34.4121 26.9508 34.829C27.3025 35.246 27.5 35.8115 27.5 36.4011C27.5 36.9908 27.3025 37.5563 26.9508 37.9733C26.5992 38.3902 26.1223 38.6245 25.625 38.6245H13.125C12.6277 38.6245 12.1508 38.3902 11.7992 37.9733C11.4475 37.5563 11.25 36.9908 11.25 36.4011Z" fill="#902C4F"/>
</svg>
