<svg width="100" height="100" viewBox="0 0 100 100" fill="none" xmlns="http://www.w3.org/2000/svg">
<path fill-rule="evenodd" clip-rule="evenodd" d="M27 45.8334V12.5H12.5V83.3334C12.5 83.3334 61.5001 83.3334 61 83C59.5 82 55.6728 78.0529 54.9709 74.9998H20.8334V58.8898L29.3107 54.2984L45.8334 45.3498V58.9523L54.1666 55.775C54.1666 55.775 57.7518 51.9855 60.4167 50C63.7752 47.4977 65.9516 46.4635 69.7917 44.7917C73.33 43.2511 79.1666 42.5 79.1666 42.5V32.1383L54.1666 45.8334V32.2916L27 45.8334Z" fill="white"/>
<path d="M62.5455 53.0898C59.467 55.7765 57.5785 59.5735 57.2934 63.6495C57.0083 67.7255 58.3499 71.7484 61.0244 74.8374C64.7689 67.5722 70.9613 61.7117 78.4128 58.48C71.842 63.3153 67.1551 70.2832 65.1535 78.192C70.6935 81.2885 77.8055 80.7762 82.8601 76.3645C91.0415 69.2236 93.8615 46.2593 93.8615 46.2593C93.8615 46.2593 70.7269 45.9489 62.5455 53.0898Z" fill="white"/>
</svg>
