<svg width="100" height="100" viewBox="0 0 100 100" fill="none" xmlns="http://www.w3.org/2000/svg">
<path fill-rule="evenodd" clip-rule="evenodd" d="M64.8665 19.2291C66.4026 16.3059 68.0667 13.4518 69.854 10.675C68.2486 8.84693 66.5694 7.08505 64.8206 5.39371C63.3624 3.9766 61.4092 3.18384 59.3758 3.18384C57.3425 3.18384 55.3892 3.9766 53.9311 5.39371C48.9311 10.1958 43.7144 16.6395 38.9561 23.2958C38.2739 22.4389 37.573 21.597 36.854 20.7708C33.8373 17.3104 28.6623 17.3104 25.6456 20.7708C20.5477 26.6187 15.2936 34.7916 11.4331 41.7083C11.7873 41.6805 12.1429 41.6666 12.4998 41.6666H65.3019C65.02 41.2824 64.7692 40.8762 64.5519 40.452C63.1561 37.7312 63.2727 34.6312 64.5019 32.0354C64.8852 31.2257 65.2949 30.3875 65.7311 29.5208C65.3372 29.0288 64.9951 28.4975 64.7102 27.9354C63.2831 25.1104 63.4748 21.8875 64.8665 19.2312M85.1102 4.61663C84.8457 4.34981 84.5309 4.13802 84.184 3.99349C83.8372 3.84896 83.4651 3.77454 83.0894 3.77454C82.7136 3.77454 82.3416 3.84896 81.9948 3.99349C81.6479 4.13802 81.3331 4.34981 81.0686 4.61663C76.9436 8.7458 72.3936 16.0895 69.479 21.65C68.7915 22.9625 68.7602 24.4062 69.3581 25.5875C69.9477 26.7541 71.0998 27.5625 72.5665 27.7291C71.3806 29.8725 70.2613 32.052 69.2102 34.2645C68.6019 35.5479 68.5998 36.9354 69.1852 38.0729C69.7748 39.2229 70.9144 40.0166 72.3665 40.1729C74.1352 40.3645 76.5915 40.5312 79.9644 40.5979V46.875H12.4998C7.46439 46.875 2.79772 51.0729 3.59772 56.6729C6.83731 79.402 26.3748 96.875 49.9998 96.875C73.6248 96.875 93.1623 79.402 96.404 56.6729C97.2019 51.0729 92.5373 46.875 87.4998 46.875H86.2144V40.5958C89.5873 40.5291 92.0436 40.3625 93.8123 40.1708C95.2623 40.0145 96.4019 39.2208 96.9936 38.0708C97.5769 36.9333 97.5769 35.5458 96.9686 34.2625C95.9182 32.0499 94.7996 29.8704 93.6144 27.727C95.079 27.5604 96.2311 26.7541 96.8206 25.5854C97.4186 24.4041 97.3873 22.9604 96.6977 21.6479C93.7852 16.0875 89.2331 8.74371 85.1081 4.61455M63.7602 87.125C77.1415 82.1645 87.1144 70.175 89.1852 55.6437C89.2134 55.4751 89.1996 55.3021 89.1451 55.1401C89.0906 54.978 88.9971 54.8319 88.8727 54.7145C88.693 54.535 88.4785 54.3938 88.2425 54.2996C88.0065 54.2054 87.7538 54.1602 87.4998 54.1666H51.229C52.6581 60.725 58.2373 62.2041 63.1456 63.5062C66.604 64.4229 69.729 65.252 70.8331 67.7083C71.6477 70.15 69.854 72.2729 67.8123 74.6958C65.1352 77.8666 62.0269 81.55 63.7602 87.125ZM34.0394 54.1666H12.4998C12.2461 54.1604 11.9938 54.2058 11.7582 54.3C11.5226 54.3942 11.3085 54.5352 11.129 54.7145C11.0046 54.8319 10.9111 54.978 10.8566 55.1401C10.8021 55.3021 10.7883 55.4751 10.8165 55.6437C11.7076 61.8839 14.0839 67.819 17.7456 72.95C19.6769 70.8187 22.1936 69.7 24.6936 68.5833C28.1206 67.0562 31.5186 65.5416 33.3331 61.4583C34.3755 59.1746 34.6241 56.6079 34.0394 54.1666Z" fill="white"/>
</svg>
