<svg width="100" height="100" viewBox="0 0 100 100" fill="none" xmlns="http://www.w3.org/2000/svg">
<path d="M26.043 8.33337C23.5566 8.33337 21.172 9.32109 19.4138 11.0792C17.6557 12.8374 16.668 15.222 16.668 17.7084V82.2917C16.668 84.7781 17.6557 87.1627 19.4138 88.9208C21.172 90.679 23.5566 91.6667 26.043 91.6667H57.293C59.7643 91.6668 62.1357 90.6911 63.8913 88.9519C65.647 87.2126 66.6449 84.8504 66.668 82.3792V76.0459C66.668 75.2171 66.3387 74.4222 65.7527 73.8362C65.1666 73.2501 64.3718 72.9209 63.543 72.9209C61.6555 72.9209 60.4638 72.4084 59.643 71.7459C58.7763 71.05 58.0596 69.975 57.5138 68.4584C56.3763 65.3125 56.2555 61.1667 56.2555 57.2917C56.2554 56.4996 55.9546 55.7371 55.4138 55.1584L54.7263 54.4209C54.5 54.1712 54.2637 53.9307 54.018 53.7C53.7096 53.4084 52.768 52.5125 49.0888 48.8334C47.1346 46.8792 46.0555 45.2292 45.7013 43.9667C45.5548 43.5301 45.5317 43.0615 45.6346 42.6125C45.7889 42.0933 46.0846 41.6273 46.4888 41.2667C46.8488 40.8647 47.3132 40.5705 47.8305 40.4167C48.2781 40.3146 48.7451 40.3376 49.1805 40.4834C50.4388 40.8375 52.0888 41.925 54.043 43.8792C56.293 46.1292 58.4305 48.2417 60.343 50.1292C63.5096 53.2625 66.0638 55.7959 67.5096 57.3375C68.0761 57.9386 68.8575 58.291 69.683 58.3177C70.5086 58.3443 71.3111 58.0431 71.9151 57.4797C72.5192 56.9164 72.8757 56.1369 72.9067 55.3115C72.9376 54.4861 72.6406 53.6821 72.0805 53.075C70.3071 51.2199 68.5027 49.3946 66.668 47.6V33.5834L78.5096 45.425C80.2638 47.1834 81.2555 49.5667 81.2555 52.05V88.5417C81.2555 89.3705 81.5847 90.1654 82.1708 90.7514C82.7568 91.3375 83.5517 91.6667 84.3805 91.6667C85.2093 91.6667 86.0041 91.3375 86.5902 90.7514C87.1762 90.1654 87.5055 89.3705 87.5055 88.5417V52.0542C87.5053 50.0019 87.1008 47.9697 86.3151 46.0737C85.5294 44.1777 84.3779 42.4551 82.9263 41.0042L66.668 24.7459V17.7042C66.6669 15.2185 65.6787 12.835 63.9206 11.0778C62.1626 9.32052 59.7786 8.33337 57.293 8.33337H26.043ZM55.7263 76.6167C57.0953 77.7141 58.702 78.4761 60.418 78.8417V79.1667H57.293C56.4642 79.1667 55.6693 79.4959 55.0833 80.082C54.4972 80.6681 54.168 81.4629 54.168 82.2917V85.4167H47.918V82.2917C47.9182 80.5254 48.4173 78.7951 49.358 77.3001C50.2986 75.8052 51.6424 74.6063 53.2346 73.8417C53.9013 74.8584 54.718 75.8084 55.7263 76.6167ZM50.0096 58.525C50.018 59.5792 50.0388 60.7167 50.1013 61.9C48.1611 63.2743 45.9144 64.1533 43.5568 64.4606C41.1992 64.7679 38.8022 64.4941 36.5746 63.663C34.347 62.832 32.3564 61.4689 30.7762 59.6926C29.1959 57.9162 28.0739 55.7804 27.5079 53.4712C26.942 51.162 26.9491 48.7494 27.5289 46.4436C28.1086 44.1378 29.2433 42.0088 30.8341 40.2418C32.425 38.4749 34.4237 37.1237 36.6562 36.306C38.8887 35.4882 41.2872 35.2287 43.643 35.55C43.0874 35.9195 42.5624 36.3528 42.068 36.85C40.8513 38.0667 39.9846 39.475 39.5805 41.0584C39.1763 42.6417 39.2721 44.2 39.6846 45.6584C40.4721 48.4625 42.4555 51.0375 44.6721 53.2542C46.3668 54.9694 48.0836 56.6626 49.8221 58.3334L49.8388 58.3459L49.993 58.5084L50.0096 58.525ZM29.168 14.5834H35.418V17.7084C35.418 20.1948 34.4302 22.5793 32.6721 24.3375C30.9139 26.0957 28.5294 27.0834 26.043 27.0834H22.918V20.8334H26.043C26.8718 20.8334 27.6666 20.5041 28.2527 19.9181C28.8387 19.332 29.168 18.5372 29.168 17.7084V14.5834ZM47.918 14.5834H54.168V17.7084C54.168 19.4334 55.568 20.8334 57.293 20.8334H60.418V27.0834H57.293C54.8066 27.0834 52.422 26.0957 50.6638 24.3375C48.9057 22.5793 47.918 20.1948 47.918 17.7084V14.5834ZM35.418 85.4167H29.168V82.2917C29.168 81.4629 28.8387 80.6681 28.2527 80.082C27.6666 79.4959 26.8718 79.1667 26.043 79.1667H22.918V72.9167H26.043C28.5294 72.9167 30.9139 73.9044 32.6721 75.6626C34.4302 77.4207 35.418 79.8053 35.418 82.2917V85.4167Z" fill="white"/>
</svg>
