<svg width="100" height="100" viewBox="0 0 100 100" fill="none" xmlns="http://www.w3.org/2000/svg">
<path d="M33.3333 48.9584V31.25C33.3333 29.5139 33.9417 28.0389 35.1583 26.8251C36.375 25.6112 37.85 25.0028 39.5833 25C41.3167 24.9973 42.7931 25.6056 44.0125 26.8251C45.2319 28.0445 45.8389 29.5195 45.8333 31.25V48.9584C45.8333 50.6945 45.2264 52.1709 44.0125 53.3875C42.7986 54.6042 41.3222 55.2112 39.5833 55.2084C37.8444 55.2056 36.3694 54.5987 35.1583 53.3875C33.9472 52.1764 33.3389 50.7 33.3333 48.9584ZM54.1667 48.0209V14.5834C54.1667 12.8473 54.775 11.3723 55.9917 10.1584C57.2083 8.94449 58.6833 8.33616 60.4167 8.33338C62.15 8.33061 63.6264 8.93894 64.8458 10.1584C66.0653 11.3778 66.6722 12.8528 66.6667 14.5834V48.0209C66.6667 50.1042 66.025 51.6667 64.7417 52.7084C63.4583 53.75 62.0167 54.2709 60.4167 54.2709C58.8167 54.2709 57.3764 53.75 56.0958 52.7084C54.8153 51.6667 54.1722 50.1042 54.1667 48.0209ZM12.5 62.3959V47.9167C12.5 46.1806 13.1083 44.7056 14.325 43.4917C15.5417 42.2778 17.0167 41.6695 18.75 41.6667C20.4833 41.6639 21.9597 42.2723 23.1792 43.4917C24.3986 44.7112 25.0056 46.1862 25 47.9167V62.3959C25 64.4792 24.3583 66.0417 23.075 67.0834C21.7917 68.125 20.35 68.6459 18.75 68.6459C17.15 68.6459 15.7097 68.125 14.4292 67.0834C13.1486 66.0417 12.5056 64.4792 12.5 62.3959ZM22.5 87.7084C20.6944 87.7084 19.4264 86.8584 18.6958 85.1584C17.9653 83.4584 18.2611 81.9473 19.5833 80.625L36.6667 63.5417C37.4306 62.7778 38.3514 62.3612 39.4292 62.2917C40.5069 62.2223 41.4611 62.5695 42.2917 63.3334L54.1667 73.5417L77.5 50.2084H75C73.8194 50.2084 72.8306 49.8084 72.0333 49.0084C71.2361 48.2084 70.8361 47.2195 70.8333 46.0417C70.8306 44.8639 71.2306 43.875 72.0333 43.0751C72.8361 42.275 73.825 41.875 75 41.875H87.5C88.6805 41.875 89.6708 42.275 90.4708 43.0751C91.2708 43.875 91.6694 44.8639 91.6667 46.0417V58.5417C91.6667 59.7223 91.2667 60.7125 90.4667 61.5125C89.6667 62.3125 88.6778 62.7112 87.5 62.7084C86.3222 62.7056 85.3333 62.3056 84.5333 61.5084C83.7333 60.7112 83.3333 59.7223 83.3333 58.5417V56.0417L57.2917 82.0834C56.5278 82.8473 55.6069 83.2639 54.5292 83.3334C53.4514 83.4028 52.4972 83.0556 51.6667 82.2917L39.7917 72.0834L25.4167 86.4584C25.0694 86.8056 24.6361 87.1014 24.1167 87.3459C23.5972 87.5903 23.0583 87.7112 22.5 87.7084Z" fill="white"/>
</svg>
