<svg width="60" height="60" viewBox="0 0 60 60" fill="none" xmlns="http://www.w3.org/2000/svg">
<path d="M30 55C43.8071 55 55 43.8071 55 30C55 16.1929 43.8071 5 30 5C16.1929 5 5 16.1929 5 30C5 43.8071 16.1929 55 30 55Z" stroke="#902C4F" stroke-width="4" stroke-linecap="round" stroke-linejoin="round"/>
<path d="M20.3239 28.9951L30.3214 15.5201C31.1039 14.4651 32.5689 15.1201 32.5689 16.5251V26.9551C32.5689 27.7951 33.1439 28.4776 33.8539 28.4776H38.7139C39.8189 28.4776 40.4089 30.0226 39.6789 31.0051L29.6814 44.4801C28.8989 45.5351 27.4339 44.8801 27.4339 43.4751V33.0451C27.4339 32.2051 26.8589 31.5226 26.1489 31.5226H21.2889C20.1864 31.5226 19.5964 29.9776 20.3264 28.9951" stroke="#902C4F" stroke-width="4" stroke-linecap="round" stroke-linejoin="round"/>
</svg>
