<svg width="60" height="60" viewBox="0 0 60 60" fill="none" xmlns="http://www.w3.org/2000/svg">
<path d="M31.25 5L25 15H35L28.75 25M42.5 15C44.8575 15 46.035 15 46.7675 15.7325C47.5 16.465 47.5 17.6425 47.5 20V26.25M17.5 15C15.1425 15 13.965 15 13.2325 15.7325C12.5 16.465 12.5 17.6425 12.5 20V26.25M40 47.5H55M40 40H55M5 47.5H20M5 40H20M50 32.5H45C42.6425 32.5 41.465 32.5 40.7325 33.2325C40 33.965 40 35.1425 40 37.5V50C40 52.3575 40 53.535 40.7325 54.2675C41.465 55 42.6425 55 45 55H50C52.3575 55 53.535 55 54.2675 54.2675C55 53.535 55 52.3575 55 50V37.5C55 35.1425 55 33.965 54.2675 33.2325C53.535 32.5 52.3575 32.5 50 32.5ZM15 32.5H10C7.6425 32.5 6.465 32.5 5.7325 33.2325C5 33.965 5 35.1425 5 37.5V50C5 52.3575 5 53.535 5.7325 54.2675C6.465 55 7.6425 55 10 55H15C17.3575 55 18.535 55 19.2675 54.2675C20 53.535 20 52.3575 20 50V37.5C20 35.1425 20 33.965 19.2675 33.2325C18.535 32.5 17.3575 32.5 15 32.5Z" stroke="#902C4F" stroke-width="4" stroke-linecap="round" stroke-linejoin="round"/>
</svg>
