<svg width="60" height="60" viewBox="0 0 60 60" fill="none" xmlns="http://www.w3.org/2000/svg">
<path d="M30 37.5L35 42.5L45 32.5" stroke="#902C4F" stroke-width="4" stroke-linecap="round" stroke-linejoin="round"/>
<path d="M50 20H25C22.2386 20 20 22.2386 20 25V50C20 52.7614 22.2386 55 25 55H50C52.7614 55 55 52.7614 55 50V25C55 22.2386 52.7614 20 50 20Z" stroke="#902C4F" stroke-width="4" stroke-linecap="round" stroke-linejoin="round"/>
<path d="M10 40C7.25 40 5 37.75 5 35V10C5 7.25 7.25 5 10 5H35C37.75 5 40 7.25 40 10" stroke="#902C4F" stroke-width="4" stroke-linecap="round" stroke-linejoin="round"/>
</svg>
