<svg width="60" height="60" viewBox="0 0 60 60" fill="none" xmlns="http://www.w3.org/2000/svg">
<path d="M12.95 13.625L8.5 11.375L11.65 5H32.825L36 11.375L31.55 13.6L29.75 10H14.75L12.95 13.625ZM38.75 20H27.5L25.5 12.5H19L17.025 20H5.7L2.5 26.375L6.975 28.6L8.75 25H35.7L37.5 28.625L41.975 26.4L38.75 20ZM36.675 55H31.5L30.9 52.75L22.25 39.75L13.575 52.75L13 55H7.825L15 27.5H20.225L19.325 30.875L22.25 35.25L25.15 30.875L24.275 27.5H29.45L36.675 55ZM20.75 37.5L18.5 34.125L15.55 45.325L20.75 37.5ZM28.95 45.3L26 34.1L23.75 37.5L28.95 45.3ZM57.5 40L47.5 30V37.5H37.5V42.5H47.5V50L57.5 40Z" fill="#902C4F"/>
</svg>
