<svg width="60" height="60" viewBox="0 0 60 60" fill="none" xmlns="http://www.w3.org/2000/svg">
<path d="M20 30H40V35H20V30ZM25 50H15V10H32.5V22.5H45V30.25L50 25.25V20L35 5H15C13.6739 5 12.4021 5.52678 11.4645 6.46447C10.5268 7.40215 10 8.67392 10 10V50C10 51.3261 10.5268 52.5979 11.4645 53.5355C12.4021 54.4732 13.6739 55 15 55H25V50ZM20 45H30.25L32.5 42.75V40H20V45ZM50.5 32.5C50.75 32.5 51.25 32.75 51.5 33L54.75 36.25C55.25 36.75 55.25 37.75 54.75 38.25L52.25 40.75L47 35.5L49.5 33C49.75 32.75 50 32.5 50.5 32.5ZM50.5 42.25L35.25 57.5H30V52.25L45.25 37L50.5 42.25Z" fill="#902C4F"/>
</svg>
