<svg width="18" height="18" viewBox="0 0 18 18" fill="none" xmlns="http://www.w3.org/2000/svg">
<path d="M12.75 2.50492C13.8812 3.15806 14.8222 4.09531 15.4799 5.22389C16.1375 6.35248 16.489 7.63325 16.4996 8.93942C16.5101 10.2456 16.1794 11.5319 15.54 12.6709C14.9007 13.81 13.9749 14.7623 12.8544 15.4337C11.7339 16.105 10.4575 16.472 9.15157 16.4985C7.84562 16.5249 6.55541 16.2098 5.40867 15.5844C4.26192 14.9589 3.2984 14.0448 2.6135 12.9326C1.9286 11.8203 1.54606 10.5485 1.50375 9.24292L1.5 8.99992L1.50375 8.75692C1.54575 7.46166 1.92266 6.19939 2.59773 5.09316C3.2728 3.98694 4.22299 3.07451 5.35567 2.44483C6.48835 1.81515 7.76486 1.48972 9.06075 1.50025C10.3566 1.51078 11.6277 1.85692 12.75 2.50492ZM9 4.49992C8.8163 4.49994 8.639 4.56739 8.50172 4.68946C8.36444 4.81153 8.27674 4.97973 8.25525 5.16217L8.25 5.24992V8.99992L8.25675 9.09817C8.27385 9.22829 8.3248 9.35165 8.4045 9.45592L8.46975 9.53092L10.7198 11.7809L10.7902 11.8424C10.9218 11.9445 11.0835 11.9999 11.25 11.9999C11.4165 11.9999 11.5782 11.9445 11.7098 11.8424L11.7802 11.7802L11.8425 11.7097C11.9445 11.5781 11.9999 11.4164 11.9999 11.2499C11.9999 11.0834 11.9445 10.9217 11.8425 10.7902L11.7802 10.7197L9.75 8.68867V5.24992L9.74475 5.16217C9.72326 4.97973 9.63556 4.81153 9.49828 4.68946C9.361 4.56739 9.1837 4.49994 9 4.49992Z" fill="white"/>
</svg>
