<svg width="274" height="145" viewBox="0 0 274 145" fill="none" xmlns="http://www.w3.org/2000/svg">
<path d="M155.309 6.31044L0 145C38.4928 121.176 116.49 73.2701 120.538 72.2422C124.585 71.2143 127.47 75.3474 128.407 77.5424C127.337 90.445 125.838 117.407 128.407 122.032C130.977 126.658 136.063 126.101 138.285 125.245L185.424 84.6094C188.475 82.923 189.359 83.3902 190.885 83.8064C193.269 84.4566 194.418 86.2959 194.418 88.2232C194.15 93.4164 194.338 104.879 194.98 106.935C195.783 109.504 195.944 109.986 197.951 112.155C199.959 114.323 204.215 113.038 204.215 112.958C204.215 112.893 250.738 69.6724 274 48.0699L247.58 62.2039C245.556 61.894 246.215 61.8023 244.207 61.4008C242.601 61.0796 241.289 57.9476 240.834 56.4218V17.3124C240.834 12.9759 238.827 11.6107 236.498 9.60301C234.635 7.99688 230.368 10.2722 228.467 11.6107L185.424 49.7563C183.844 51.0948 179.819 53.7074 176.349 53.4504C172.88 53.1935 171.585 50.8806 171.37 49.7563C171.692 35.2744 171.962 5.98336 171.37 4.30277C169.845 -0.0337862 166.472 -0.435319 163.661 0.28744C161.857 0.751431 157.317 4.30277 155.309 6.31044Z" fill="url(#paint0_linear_99_11)"/>
<defs>
<linearGradient id="paint0_linear_99_11" x1="302.5" y1="44" x2="158" y2="73" gradientUnits="userSpaceOnUse">
<stop stop-color="#441436"/>
<stop offset="1" stop-color="#902C4F"/>
</linearGradient>
</defs>
</svg>
