<svg width="17" height="18" viewBox="0 0 17 18" fill="none" xmlns="http://www.w3.org/2000/svg">
<path d="M2.83268 14.6663C2.4431 14.6663 2.10971 14.5277 1.83252 14.2506C1.55532 13.9734 1.41649 13.6397 1.41602 13.2497V4.74967C1.41602 4.36009 1.55485 4.0267 1.83252 3.74951C2.11018 3.47231 2.44357 3.33348 2.83268 3.33301H14.166C14.5556 3.33301 14.8892 3.47184 15.1669 3.74951C15.4446 4.02717 15.5832 4.36056 15.5827 4.74967V13.2497C15.5827 13.6393 15.4441 13.9729 15.1669 14.2506C14.8897 14.5282 14.5561 14.6668 14.166 14.6663H2.83268ZM8.49935 9.58405C8.55838 9.58405 8.62047 9.57508 8.68564 9.55713C8.75081 9.53919 8.81267 9.51274 8.87122 9.4778L13.8827 6.34342C13.9771 6.2844 14.048 6.21073 14.0952 6.12242C14.1424 6.03412 14.166 5.93661 14.166 5.82988C14.166 5.59377 14.0657 5.41669 13.865 5.29863C13.6643 5.18058 13.4577 5.18648 13.2452 5.31634L8.49935 8.29134L3.75352 5.31634C3.54102 5.18648 3.33442 5.18365 3.13372 5.30784C2.93303 5.43204 2.83268 5.60605 2.83268 5.82988C2.83268 5.94794 2.85629 6.05136 2.90352 6.14013C2.95074 6.22891 3.02157 6.29667 3.11602 6.34342L8.12747 9.4778C8.1865 9.51322 8.2486 9.5399 8.31377 9.55784C8.37893 9.57579 8.44079 9.58452 8.49935 9.58405Z" fill="white"/>
</svg>
