<svg width="66" height="66" viewBox="0 0 66 66" fill="none" xmlns="http://www.w3.org/2000/svg">
<path d="M22.11 44.935C24.8875 38.0325 28.0225 30.14 39.875 27.5C39.875 27.5 26.125 27.5 21.67 40.2325C21.67 40.2325 19.25 37.8125 19.25 35.0625C19.25 32.3125 22 26.4825 28.875 25.1075C30.8275 24.75 33 24.3925 35.145 24.09C40.5625 23.375 45.76 22.605 46.75 20.625C46.75 20.625 42.625 44 27.5 44C27.005 44 26.3175 43.835 25.6575 43.5875L24.365 46.75L21.7525 45.8425L22.11 44.935ZM33 9C45.1275 9 57 20.8725 57 33C57 45.1275 45.1275 57 33 57C20.8725 57 9 45.1275 9 33C9 20.8725 20.8725 9 33 9ZM33 5.5C17.875 5.5 5.5 17.875 5.5 33C5.5 48.125 17.875 60.5 33 60.5C48.125 60.5 60.5 48.125 60.5 33C60.5 17.875 48.125 5.5 33 5.5Z" fill="#0A99B2"/>
</svg>
