<svg width="20" height="20" viewBox="0 0 20 20" fill="none" xmlns="http://www.w3.org/2000/svg">
<path d="M4.16652 8.217C5.76666 11.7008 8.60934 14.4621 12.1382 15.9603L12.7049 16.2128C13.3324 16.4923 14.0384 16.5412 14.6985 16.3511C15.3586 16.161 15.9304 15.7441 16.3132 15.1737L17.054 14.0703C17.1699 13.8973 17.2169 13.6871 17.1856 13.4812C17.1543 13.2753 17.047 13.0886 16.8848 12.9578L14.3749 10.9328C14.2874 10.8624 14.1867 10.8103 14.0786 10.7797C13.9706 10.7491 13.8575 10.7407 13.7461 10.755C13.6347 10.7692 13.5274 10.8058 13.4305 10.8626C13.3336 10.9194 13.2492 10.9951 13.1824 11.0853L12.4057 12.1328C10.412 11.1482 8.79829 9.53417 7.81402 7.54033L8.86068 6.76367C8.95089 6.6968 9.02665 6.61239 9.08342 6.51552C9.14019 6.41864 9.17679 6.31129 9.19103 6.19991C9.20528 6.08853 9.19687 5.97542 9.1663 5.86738C9.13574 5.75933 9.08366 5.65858 9.01318 5.57117L6.98818 3.06117C6.85743 2.89904 6.67071 2.79176 6.4648 2.76045C6.25889 2.72914 6.04872 2.77607 5.87568 2.892L4.76485 3.637C4.19102 4.02181 3.77242 4.59784 3.58364 5.26247C3.39486 5.9271 3.44815 6.63716 3.73402 7.26617L4.16652 8.217Z" fill="white"/>
</svg>
