<svg width="66" height="66" viewBox="0 0 66 66" fill="none" xmlns="http://www.w3.org/2000/svg">
<path d="M55.5789 33.3026C55.8624 28.403 54.6169 23.5364 52.0146 19.3755C49.4122 15.2145 45.5815 11.9647 41.052 10.0754C36.5225 8.18606 31.518 7.75046 26.7302 8.82881C21.9424 9.90717 17.6078 12.4462 14.3257 16.095C11.0436 19.7437 8.97598 24.322 8.40875 29.1968C7.84152 34.0716 8.80266 39.0023 11.1593 43.3072C13.516 47.6121 17.1517 51.0785 21.564 53.2274C25.9763 55.3763 30.9471 56.1014 35.7894 55.3026M9.82888 24.0394H54.0394M9.82888 39.8289H38.5131" stroke="#0A99B2" stroke-width="4" stroke-linecap="round" stroke-linejoin="round"/>
<path d="M30.6177 8.25C26.1843 15.3542 23.834 23.5602 23.834 31.9342C23.834 40.3082 26.1843 48.5142 30.6177 55.6184M33.2492 8.25C39.3361 18.0026 41.3282 28.9237 39.2229 39.8289M50.3545 42.4605L45.0913 50.3553H55.6177L50.3545 58.25" stroke="#0A99B2" stroke-width="4" stroke-linecap="round" stroke-linejoin="round"/>
</svg>
