<svg width="2383" height="1264" viewBox="0 0 2383 1264" fill="none" xmlns="http://www.w3.org/2000/svg">
<path d="M1350.74 55.0096L0 1264C334.775 1056.32 1013.12 638.713 1048.32 629.753C1083.52 620.792 1108.62 656.821 1116.77 675.956C1107.46 788.431 1094.42 1023.46 1116.77 1063.78C1139.12 1104.11 1183.35 1099.25 1202.67 1091.79L1612.65 737.561C1639.19 722.86 1646.87 726.933 1660.14 730.56C1680.88 736.229 1690.87 752.262 1690.87 769.063C1688.54 814.333 1690.17 914.254 1695.76 932.175C1702.74 954.577 1704.14 958.777 1721.6 977.679C1739.06 996.58 1776.08 985.379 1776.08 984.679C1776.08 984.119 2180.69 607.351 2383 419.037L2153.22 542.246C2135.62 539.545 2141.35 538.746 2123.89 535.246C2109.92 532.445 2098.51 505.143 2094.55 491.842V150.917C2094.55 113.114 2077.09 101.213 2056.84 83.7118C2040.64 69.7107 2003.53 89.5455 1987 101.213L1612.65 433.738C1598.91 445.406 1563.9 468.181 1533.72 465.94C1503.55 463.7 1492.29 443.539 1490.42 433.738C1493.22 307.495 1495.57 52.1584 1490.42 37.5083C1477.15 -0.294523 1447.82 -3.79478 1423.37 2.50568C1407.68 6.55041 1368.2 37.5083 1350.74 55.0096Z" fill="#902C4F"/>
</svg>
